<svg width="92" height="80" viewBox="0 0 92 80" fill="none" xmlns="http://www.w3.org/2000/svg">
<path d="M27.7383 10.4296C28.5854 8.35786 31.5193 8.35786 32.3664 10.4296L39.6096 28.1445C39.6952 28.3538 39.8088 28.5505 39.9473 28.7292L51.6671 43.8595C53.0378 45.629 51.5708 48.1698 49.3531 47.8676L30.3899 45.283C30.1659 45.2525 29.9388 45.2525 29.7147 45.283L10.7516 47.8676C8.5338 48.1698 7.06688 45.629 8.43753 43.8595L20.1574 28.7292C20.2959 28.5505 20.4094 28.3538 20.495 28.1445L27.7383 10.4296Z" fill="#1F6CC7" fill-opacity="0.8"/>
<path d="M30.3852 30.1927C29.0146 28.4232 30.4815 25.8824 32.6992 26.1847L51.6624 28.7692C51.8864 28.7998 52.1136 28.7998 52.3376 28.7692L71.3008 26.1847C73.5185 25.8824 74.9854 28.4232 73.6148 30.1927L61.8949 45.323C61.7565 45.5018 61.6429 45.6985 61.5573 45.9078L54.314 63.6226C53.4669 65.6944 50.5331 65.6944 49.686 63.6226L42.4427 45.9078C42.3571 45.6985 42.2435 45.5018 42.1051 45.323L30.3852 30.1927Z" fill="#3693FF" fill-opacity="0.8"/>
</svg>